<?xml version="1.0" encoding="utf-8"?>
<!DOCTYPE svg PUBLIC "-//W3C//DTD SVG 1.1//EN" "http://www.w3.org/Graphics/SVG/1.1/DTD/svg11.dtd">
<!-- exported from Silhouette Studio® Business Edition V4.4.476ssbe -->
<svg version="1.1" xmlns="http://www.w3.org/2000/svg" xmlns:xlink="http://www.w3.org/1999/xlink" width="297mm" height="210mm" viewBox="0 0 297 210">
<defs>
<path id="path_9f165333a2e596a995e75486fcfa90ba" d="M 84.83921 84.22994 C 84.85148 66.46759 84.85785 66.46757 84.8539 65.46687 C 84.77105 44.45209 84.47142 43.58683 102.869 44.06003 C 111.3475 44.2781 110.6271 46.01254 116.7708 50.36885 C 119.0223 51.96534 122.1623 53.75291 124.4334 52.12373 C 125.9606 51.02823 126.1562 48.67659 126.0425 47.9735 C 125.3616 43.7621 113.6298 37.35192 110.335 35.59741 C 95.86427 35.59741 104.5467 35.59741 88.62888 35.59741 C 83.40576 38.1429 76.40903 42.33406 76.40961 49.72154 L 76.41488 118.6196 C 76.41515 121.9154 80.62083 132.3424 92.91992 132.8769 C 107.3143 133.5026 113.1131 130.8983 117.2212 122.1288 C 123.3407 109.0657 119.5471 107.9151 131.0076 101.7686 C 148.8456 101.5338 148.5895 101.5661 151.5831 101.1751 C 151.8584 100.9338 154.0022 99.43185 154.0959 97.64238 C 154.1776 96.08331 152.9626 94.92522 151.1261 93.12738 C 126.7377 92.63228 119.3883 91.32353 111.1883 113.0298 C 107.2834 123.3666 106.716 124.0367 97.16647 123.9271 C 88.60253 123.8288 88.61366 123.9434 84.83818 117.5862 L 84.83921 84.22994 Z" fill-rule="evenodd" fill="#2F2F2F" fill-opacity="1" stroke="none" stroke-opacity="1" stroke-width="0.1" stroke-linecap="round" stroke-linejoin="round"/>
<path id="path_3311856523caf7d9324ec8e90c3af2d1" d="M 208.8745 48.68801 C 205.0753 40.62679 202.1776 37.07085 191.1924 35.94628 C 175.2359 34.31283 169.6707 38.73505 166.2088 41.5096 C 163.9303 43.33566 163.9034 44.99395 155.3006 45.23254 C 149.919 45.38179 148.1148 44.20498 147.0288 43.70308 C 147.0311 36.68924 147.3055 30.65446 144.7576 28.98941 C 143.5315 28.18811 140.3287 28.23521 139.2852 29.46291 C 137.8615 31.13797 136.8999 50.50558 139.8546 53.01011 C 141.8321 54.68632 159.5928 53.86937 159.9498 53.84913 C 167.3582 53.429 170.7964 48.43567 174.7186 46.42366 C 179.3077 44.06954 186.4905 44.62983 195.052 45.39999 C 196.6977 46.52637 198.6836 47.85529 199.3354 49.35112 C 199.7391 50.27762 199.8511 51.4335 199.9433 65.58219 C 199.9601 68.1471 199.9973 82.2544 200.0096 83.617 L 200.2263 107.642 C 200.3677 123.3557 199.2235 126.127 183.1794 124.3793 C 181.3651 124.1817 178.5432 123.8982 176.3107 119.8774 C 173.9189 115.5698 174.046 110.9596 169.517 105.5716 C 169.0852 105.5459 165.5669 105.1962 164.4178 106.0543 C 160.6049 108.9019 169.2774 125.3324 170.1685 126.6829 C 174.8353 133.7557 182.6301 133.8298 190.9995 133.4889 C 200.3679 133.1073 203.7825 131.2622 208.8745 120.706 L 208.8745 48.68801 Z" fill-rule="evenodd" fill="#2F2F2F" fill-opacity="1" stroke="none" stroke-opacity="1" stroke-width="0.1" stroke-linecap="round" stroke-linejoin="round"/>
<path id="path_b655a2feae9ded453d230e77d93c0a43" d="M 109.0898 87.69098 C 110.0257 87.69098 110.7858 85.98053 110.7858 83.87494 L 110.7858 67.19739 C 110.7858 65.09171 110.0257 63.38135 109.0898 63.38135 L 105.6978 63.38135 C 104.7619 63.38135 104.0018 65.09171 104.0018 67.19739 L 104.0018 83.87494 C 104.0018 85.98053 104.7619 87.69098 105.6978 87.69098 L 109.0898 87.69098 Z" fill-rule="evenodd" fill="#16F4D0" fill-opacity="1" stroke="none" stroke-opacity="1" stroke-width="0.1" stroke-linecap="round" stroke-linejoin="round"/>
<path id="path_7d8819624a1ee6c94d2ae3a04f281b4f" d="M 95.239 77.23145 C 95.239 78.16724 96.94936 78.92746 99.05501 78.92746 L 115.7326 78.92746 C 117.8382 78.92746 119.5486 78.16724 119.5486 77.23145 L 119.5486 73.83936 C 119.5486 72.90356 117.8382 72.14337 115.7326 72.14337 L 99.05501 72.14337 C 96.94936 72.14337 95.239 72.90356 95.239 73.83936 L 95.239 77.23145 Z" fill-rule="evenodd" fill="#16F4D0" fill-opacity="1" stroke="none" stroke-opacity="1" stroke-width="0.1" stroke-linecap="round" stroke-linejoin="round"/>
<path id="path_732bb5b4958315daa8aa40e041fbda2a" d="M 193.6085 74.97067 C 193.6085 81.52158 188.2872 86.84286 181.7364 86.84286 C 175.1855 86.84286 169.8642 81.52158 169.8642 74.97067 C 169.8642 68.4198 175.1855 63.09857 181.7364 63.09857 C 188.2872 63.09857 193.6085 68.4198 193.6085 74.97067 Z" fill-rule="evenodd" fill="#C33149" fill-opacity="1" stroke="none" stroke-opacity="1" stroke-width="0.1" stroke-linecap="round" stroke-linejoin="round"/>
<path id="path_d82f3f23a665f7d37267abb0c7c84073" d="M 42.61444 137.3936 C 49.07629 137.3936 52.30721 140.084 52.30721 145.4648 L 52.30721 148.1183 L 45.78388 148.1183 L 45.78388 145.1331 C 45.78388 143.2166 44.72741 142.2215 42.61444 142.1478 L 42.61444 137.3936 Z M 42.61444 163.1181 C 44.7274 163.069 45.78388 162.0984 45.78388 160.2065 L 45.78388 156.2263 C 45.78388 154.9978 45.26792 154.3836 44.236 154.3836 L 42.06165 154.3836 L 42.06165 149.9979 L 52.30721 149.9979 L 52.30721 167.2458 L 49.21144 167.2458 L 47.73723 165.1451 C 46.72986 166.8895 45.12054 167.7617 42.90926 167.7617 L 42.61444 167.7617 L 42.61444 163.1181 Z M 31.96343 145.3911 C 31.96343 140.084 35.15752 137.4305 41.54569 137.4305 L 41.54569 142.1847 C 39.7275 142.4058 38.81841 143.3886 38.81841 145.1331 L 38.8184 160.2065 C 38.8184 161.951 39.7275 162.9216 41.54569 163.1181 L 41.54569 167.7249 C 38.20417 167.7249 35.77175 167.0493 34.24842 165.6979 C 32.72509 164.3466 31.96343 162.1845 31.96343 159.2116 L 31.96343 145.3911 Z" fill-rule="evenodd" fill="#2F2F2F" fill-opacity="1" stroke="none" stroke-opacity="1" stroke-width="0.1" stroke-linecap="round" stroke-linejoin="round"/>
<path id="path_d973969228e6be44002365af7fa27a28" d="M 70.36754 138.057 L 77.77533 167.2458 L 70.73602 167.2458 L 69.37245 161.1279 L 63.5494 161.1279 L 64.50766 156.2631 L 68.37737 156.2631 L 66.09238 144.396 L 60.93276 167.2458 L 54.29892 167.2458 L 61.7067 138.057 L 70.36754 138.057 Z" fill-rule="evenodd" fill="#2F2F2F" fill-opacity="1" stroke="none" stroke-opacity="1" stroke-width="0.1" stroke-linecap="round" stroke-linejoin="round"/>
<path id="path_e2657b4aae4a86222ac02ccf14e10964" d="M 86.02888 138.057 L 86.02888 167.2458 L 79.76353 167.2458 L 79.76353 138.057 L 86.02888 138.057 Z M 107.6624 138.057 L 107.6624 167.2458 L 101.3234 167.2458 L 101.3234 138.057 L 107.6624 138.057 Z M 91.96243 167.2458 L 86.76599 150.9929 L 86.76599 138.057 L 88.68236 138.057 L 93.69463 158.1058 L 98.59627 138.057 L 100.5495 138.057 L 100.5495 151.214 L 95.16872 167.2458 L 91.96243 167.2458 Z" fill-rule="evenodd" fill="#2F2F2F" fill-opacity="1" stroke="none" stroke-opacity="1" stroke-width="0.1" stroke-linecap="round" stroke-linejoin="round"/>
<path id="path_7b8632a39878c1134d216e2fffb8001b" d="M 119.0858 149.6293 L 127.3412 149.6293 L 127.3412 154.4941 L 119.0858 154.4941 L 119.0858 149.6293 Z M 119.0858 138.057 L 127.8572 138.057 L 127.8572 142.9586 L 119.0858 142.9586 L 119.0858 138.057 Z M 127.8572 167.2458 L 119.0858 167.2458 L 119.0858 162.1967 L 127.8572 162.1967 L 127.8572 167.2458 Z M 118.0539 138.057 L 118.0539 167.2458 L 111.3094 167.2458 L 111.3094 138.057 L 118.0539 138.057 Z" fill-rule="evenodd" fill="#2F2F2F" fill-opacity="1" stroke="none" stroke-opacity="1" stroke-width="0.1" stroke-linecap="round" stroke-linejoin="round"/>
<path id="path_e51db9182da6942a4854355684cff190" d="M 148.4616 156.5097 C 148.6565 156.844 148.827 157.1956 148.9732 157.5647 C 149.1194 157.9338 149.2622 158.3064 149.4014 158.6825 C 149.5405 158.2925 149.6867 157.9199 149.8399 157.5648 C 149.993 157.2097 150.1671 156.851 150.362 156.4888 L 160.49 138.0829 C 160.671 137.7626 160.8589 137.5676 161.0538 137.498 C 161.2487 137.4283 161.5272 137.3935 161.8891 137.3935 L 164.8753 137.3935 L 164.8753 167.3307 L 161.3253 167.3307 L 161.3253 145.3397 C 161.3253 145.0474 161.3323 144.7341 161.3462 144.4 C 161.3601 144.0658 161.381 143.7247 161.4088 143.3767 L 151.1555 162.0876 C 150.8074 162.714 150.3202 163.0272 149.6938 163.0272 L 149.1091 163.0272 C 148.4825 163.0272 147.9952 162.714 147.6471 162.0876 L 137.1641 143.3141 C 137.2059 143.676 137.2373 144.0311 137.2581 144.3791 C 137.279 144.7272 137.2894 145.0474 137.2894 145.3397 L 137.2895 167.3307 L 133.7395 167.3307 L 133.7394 137.3935 L 136.7256 137.3935 C 137.0876 137.3935 137.366 137.4283 137.5609 137.498 C 137.7558 137.5676 137.9438 137.7626 138.1248 138.0829 L 148.4616 156.5097 L 148.4616 156.5097 Z" fill-rule="evenodd" fill="#C33149" fill-opacity="1" stroke="none" stroke-opacity="1" stroke-width="0.1" stroke-linecap="round" stroke-linejoin="round"/>
<path id="path_5a1451f90e92bb17192d61e6f9f4a486" d="M 196.7805 167.3306 L 193.6483 167.3306 C 193.2863 167.3306 192.9939 167.2401 192.7711 167.0591 C 192.5484 166.878 192.3813 166.6483 192.27 166.3697 L 189.4717 159.1428 L 176.0442 159.1428 L 173.2459 166.3697 C 173.1485 166.6204 172.9814 166.8432 172.7448 167.0382 C 172.5081 167.2332 172.2157 167.3306 171.8678 167.3306 L 168.7354 167.3306 L 180.701 137.3986 L 184.8148 137.3986 L 196.7805 167.3306 Z M 177.1719 156.2164 L 188.344 156.2164 L 183.6454 144.2287 C 183.3392 143.4885 183.0399 142.5632 182.7475 141.4529 C 182.5943 142.0148 182.4447 142.5323 182.2985 143.0053 C 182.1524 143.4783 182.0097 143.8929 181.8704 144.2493 L 177.1719 156.2164 Z" fill-rule="evenodd" fill="#C33149" fill-opacity="1" stroke="none" stroke-opacity="1" stroke-width="0.1" stroke-linecap="round" stroke-linejoin="round"/>
<path id="path_d2c2212828166ff2a1d07f422b6109b4" d="M 202.6457 137.3935 C 203.0077 137.3935 203.2757 137.4388 203.4497 137.5292 C 203.6236 137.6197 203.8221 137.8042 204.0449 138.0826 L 221.3773 160.6358 C 221.3356 160.2738 221.3078 159.9223 221.2938 159.5812 C 221.2799 159.2402 221.273 158.9095 221.273 158.5893 L 221.273 137.3935 L 224.823 137.3935 L 224.823 167.3306 L 222.7765 167.3306 C 222.4563 167.3306 222.1882 167.2749 221.9725 167.1636 C 221.7567 167.0522 221.5444 166.8642 221.3356 166.5997 L 204.0239 144.0675 C 204.0518 144.4155 204.0727 144.7566 204.0866 145.0907 C 204.1006 145.4248 204.1075 145.731 204.1075 146.0094 L 204.1075 167.3306 L 200.5576 167.3306 L 200.5575 137.3935 L 202.6457 137.3935 L 202.6457 137.3935 Z" fill-rule="evenodd" fill="#C33149" fill-opacity="1" stroke="none" stroke-opacity="1" stroke-width="0.1" stroke-linecap="round" stroke-linejoin="round"/>
<path id="path_3064ccabfbc95683b0457d86895c821a" d="M 236.9394 167.3306 L 232.8882 167.3306 L 232.8882 137.3935 L 236.9394 137.3935 L 236.9394 167.3306 Z" fill-rule="evenodd" fill="#C33149" fill-opacity="1" stroke="none" stroke-opacity="1" stroke-width="0.1" stroke-linecap="round" stroke-linejoin="round"/>
<path id="path_24f1f6d204d38a4fde0fdc4f245e09e8" d="M 269.574 167.3306 L 266.4418 167.3306 C 266.0798 167.3306 265.7874 167.2401 265.5646 167.0591 C 265.3418 166.878 265.1748 166.6483 265.0635 166.3697 L 262.2651 159.1428 L 248.8377 159.1428 L 246.0394 166.3697 C 245.942 166.6204 245.7749 166.8432 245.5382 167.0382 C 245.3015 167.2332 245.0092 167.3306 244.6612 167.3306 L 241.5288 167.3306 L 253.4945 137.3986 L 257.6083 137.3986 L 269.574 167.3306 Z M 249.9654 156.2164 L 261.1375 156.2164 L 256.4389 144.2287 C 256.1327 143.4885 255.8334 142.5632 255.541 141.4529 C 255.3878 142.0148 255.2382 142.5323 255.092 143.0053 C 254.9459 143.4783 254.8032 143.8929 254.6639 144.2493 L 249.9654 156.2164 Z" fill-rule="evenodd" fill="#C33149" fill-opacity="1" stroke="none" stroke-opacity="1" stroke-width="0.1" stroke-linecap="round" stroke-linejoin="round"/>
</defs>
<g>
<use xlink:href="#path_9f165333a2e596a995e75486fcfa90ba"/>
</g>
<g>
<use xlink:href="#path_3311856523caf7d9324ec8e90c3af2d1"/>
</g>
<g>
<g>
<use xlink:href="#path_b655a2feae9ded453d230e77d93c0a43"/>
</g>
<g>
<use xlink:href="#path_7d8819624a1ee6c94d2ae3a04f281b4f"/>
</g>
</g>
<g>
<use xlink:href="#path_732bb5b4958315daa8aa40e041fbda2a"/>
</g>
<g>
<g>
<use xlink:href="#path_d82f3f23a665f7d37267abb0c7c84073"/>
</g>
<g>
<use xlink:href="#path_d973969228e6be44002365af7fa27a28"/>
</g>
<g>
<use xlink:href="#path_e2657b4aae4a86222ac02ccf14e10964"/>
</g>
<g>
<use xlink:href="#path_7b8632a39878c1134d216e2fffb8001b"/>
</g>
</g>
<g>
<g>
<use xlink:href="#path_e51db9182da6942a4854355684cff190"/>
</g>
<g>
<use xlink:href="#path_5a1451f90e92bb17192d61e6f9f4a486"/>
</g>
<g>
<use xlink:href="#path_d2c2212828166ff2a1d07f422b6109b4"/>
</g>
<g>
<use xlink:href="#path_3064ccabfbc95683b0457d86895c821a"/>
</g>
<g>
<use xlink:href="#path_24f1f6d204d38a4fde0fdc4f245e09e8"/>
</g>
</g>
</svg>